{
	"accessors" : 
	[
		{
			"bufferView" : 2,
			"byteOffset" : 0,
			"componentType" : 5126,
			"count" : 576,
			"max" : 
			[
				1,
				0.835527777671814,
				0.06575388461351395,
				1
			],
			"min" : 
			[
				0.2631747424602509,
				0.5542271137237549,
				0.03994716703891754,
				1
			],
			"name" : "accessor_color_m0-PolyPaper9_-400438",
			"type" : "VEC4"
		},
		{
			"bufferView" : 2,
			"byteOffset" : 9216,
			"componentType" : 5126,
			"count" : 9544,
			"max" : 
			[
				1,
				1,
				1,
				1
			],
			"min" : 
			[
				0.2631747424602509,
				0.5542271137237549,
				0.06575388461351395,
				1
			],
			"name" : "accessor_color_m1-PolyPaper9_-400000",
			"type" : "VEC4"
		},
		{
			"bufferView" : 0,
			"byteOffset" : 0,
			"componentType" : 5123,
			"count" : 714,
			"max" : 
			[
				575
			],
			"min" : 
			[
				0
			],
			"name" : "accessor_indices_0_m0-PolyPaper9_-400438",
			"type" : "SCALAR"
		},
		{
			"bufferView" : 0,
			"byteOffset" : 1428,
			"componentType" : 5123,
			"count" : 9588,
			"max" : 
			[
				9543
			],
			"min" : 
			[
				0
			],
			"name" : "accessor_indices_0_m1-PolyPaper9_-400000",
			"type" : "SCALAR"
		},
		{
			"bufferView" : 1,
			"byteOffset" : 6912,
			"componentType" : 5126,
			"count" : 576,
			"max" : 
			[
				0.9906253,
				0.9593585,
				0.9902766
			],
			"min" : 
			[
				-0.9904881,
				-0.9958571000000001,
				-0.9901766
			],
			"name" : "accessor_normal_m0-PolyPaper9_-400438",
			"type" : "VEC3"
		},
		{
			"bufferView" : 1,
			"byteOffset" : 128352,
			"componentType" : 5126,
			"count" : 9544,
			"max" : 
			[
				0.941267,
				0.9998461,
				0.9805243
			],
			"min" : 
			[
				-0.9827312,
				-0.9999409,
				-0.9733545
			],
			"name" : "accessor_normal_m1-PolyPaper9_-400000",
			"type" : "VEC3"
		},
		{
			"bufferView" : 1,
			"byteOffset" : 0,
			"componentType" : 5126,
			"count" : 576,
			"max" : 
			[
				1.48236,
				1.155169,
				0.3985617
			],
			"min" : 
			[
				1.226657,
				-1.015367,
				0.08633676
			],
			"name" : "accessor_position_m0-PolyPaper9_-400438",
			"type" : "VEC3"
		},
		{
			"bufferView" : 1,
			"byteOffset" : 13824,
			"componentType" : 5126,
			"count" : 9544,
			"max" : 
			[
				2.503726,
				1.238996,
				1.325842
			],
			"min" : 
			[
				0.01459778,
				-1.051244,
				-1.289158
			],
			"name" : "accessor_position_m1-PolyPaper9_-400000",
			"type" : "VEC3"
		}
	],
	"asset" : 
	{
		"copyright" : "Unknown",
		"generator" : "glTF 1-to-2 Upgrader for Google Blocks",
		"version" : "2.0"
	},
	"bufferViews" : 
	[
		{
			"buffer" : 0,
			"byteLength" : 20604,
			"byteOffset" : 0,
			"name" : "ushortBufferView",
			"target" : 34963
		},
		{
			"buffer" : 0,
			"byteLength" : 242880,
			"byteOffset" : 20604,
			"byteStride" : 12,
			"name" : "vec3BufferView",
			"target" : 34962
		},
		{
			"buffer" : 0,
			"byteLength" : 161920,
			"byteOffset" : 263484,
			"byteStride" : 16,
			"name" : "vec4BufferView",
			"target" : 34962
		}
	],
	"buffers" : 
	[
		{
			"byteLength" : 425404,
			"name" : "model",
			"uri" : "model.bin"
		}
	],
	"materials" : 
	[
		{
			"alphaMode" : "OPAQUE",
			"doubleSided" : false,
			"name" : "BlocksPaper",
			"pbrMetallicRoughness" : 
			{
				"baseColorFactor" : 
				[
					1,
					1,
					1,
					1
				],
				"metallicFactor" : 0,
				"roughnessFactor" : 0.6
			}
		},
		{
			"alphaMode" : "BLEND",
			"doubleSided" : false,
			"name" : "BlocksGlass",
			"pbrMetallicRoughness" : 
			{
				"baseColorFactor" : 
				[
					0.2,
					0.2,
					1,
					0.3
				],
				"metallicFactor" : 1,
				"roughnessFactor" : 0.4
			}
		},
		{
			"alphaMode" : "OPAQUE",
			"doubleSided" : true,
			"name" : "BlocksGem",
			"pbrMetallicRoughness" : 
			{
				"baseColorFactor" : 
				[
					1,
					0.4,
					1,
					1
				],
				"metallicFactor" : 0,
				"roughnessFactor" : 0.1
			}
		}
	],
	"meshes" : 
	[
		{
			"name" : "mesh_m0-PolyPaper9_-400438",
			"primitives" : 
			[
				{
					"attributes" : 
					{
						"COLOR_0" : 0,
						"NORMAL" : 4,
						"POSITION" : 6
					},
					"indices" : 2,
					"material" : 0,
					"mode" : 4
				}
			]
		},
		{
			"name" : "mesh_m1-PolyPaper9_-400000",
			"primitives" : 
			[
				{
					"attributes" : 
					{
						"COLOR_0" : 1,
						"NORMAL" : 5,
						"POSITION" : 7
					},
					"indices" : 3,
					"material" : 0,
					"mode" : 4
				}
			]
		}
	],
	"nodes" : 
	[
		{
			"matrix" : 
			[
				1,
				0,
				0,
				0,
				0,
				1,
				0,
				0,
				0,
				0,
				1,
				0,
				0,
				0,
				0,
				1
			],
			"mesh" : 1,
			"name" : "node_MeshObject-1139085312-PolyPaper9"
		},
		{
			"matrix" : 
			[
				1,
				0,
				0,
				0,
				0,
				1,
				0,
				0,
				0,
				0,
				1,
				0,
				0,
				0,
				0,
				1
			],
			"mesh" : 0,
			"name" : "node_MeshObject-910778816-PolyPaper9"
		}
	],
	"scene" : 0,
	"scenes" : 
	[
		{
			"extras" : {},
			"name" : "defaultScene",
			"nodes" : 
			[
				1,
				0
			]
		}
	]
}